<?xml version="1.0" standalone="no"?>
<!DOCTYPE svg PUBLIC "-//W3C//DTD SVG 20010904//EN"
 "http://www.w3.org/TR/2001/REC-SVG-20010904/DTD/svg10.dtd">
<svg version="1.0" xmlns="http://www.w3.org/2000/svg"
 width="260.000000pt" height="260.000000pt" viewBox="0 0 260.000000 260.000000"
 preserveAspectRatio="xMidYMid meet">
<metadata>
Created by potrace 1.14, written by Peter Selinger 2001-2017
</metadata>
<g transform="translate(0.000000,260.000000) scale(0.100000,-0.100000)"
fill="#000000" stroke="none">
<path d="M1100 2555 c-444 -62 -823 -345 -1006 -752 -19 -43 -39 -87 -44 -98
-5 -11 -18 -61 -30 -111 -19 -82 -21 -112 -18 -335 4 -233 5 -248 32 -334 125
-409 443 -732 843 -858 154 -49 237 -62 408 -62 171 0 253 13 409 62 451 141
803 545 876 1005 7 43 17 78 21 78 5 0 9 7 9 15 0 8 -3 15 -7 15 -5 0 -9 60
-10 133 0 72 -8 165 -16 205 l-14 72 24 0 c14 0 23 6 23 15 0 10 -10 15 -28
15 -26 0 -30 5 -46 58 -61 196 -194 400 -361 553 -284 259 -676 378 -1065 324z
m760 -339 c0 -2 -8 -10 -17 -17 -16 -13 -17 -12 -4 4 13 16 21 21 21 13z
m-1083 -38 c-3 -8 -6 -5 -6 6 -1 11 2 17 5 13 3 -3 4 -12 1 -19z m1074 -75 c1
-35 -1 -66 -4 -70 -4 -3 -7 27 -7 67 0 88 7 90 11 3z m-551 27 l0 -30 -175 0
c-168 0 -175 -1 -175 -20 0 -15 7 -20 29 -20 17 0 32 -4 35 -9 3 -4 26 -11 51
-14 24 -4 53 -11 62 -16 10 -5 45 -15 78 -22 82 -17 95 -25 95 -58 l0 -28 -96
28 c-53 16 -105 29 -115 29 -11 0 -19 5 -19 10 0 6 -9 10 -20 10 -25 0 -102
19 -157 38 l-43 15 0 58 0 59 225 0 225 0 0 -30z m120 -50 l0 -80 28 6 c15 3
41 10 57 16 17 6 46 14 65 18 19 5 53 14 75 19 22 6 59 15 83 20 42 8 43 8 40
-17 -3 -21 -13 -28 -63 -44 -33 -10 -79 -22 -102 -25 -24 -3 -43 -9 -43 -12 0
-4 -44 -18 -97 -31 -54 -12 -102 -27 -107 -31 -6 -5 -16 -9 -23 -9 -10 0 -13
29 -13 125 l0 125 50 0 50 0 0 -80z m220 -130 c-8 -5 -19 -10 -25 -10 -5 0 -3
5 5 10 8 5 20 10 25 10 6 0 3 -5 -5 -10z"/>
</g>
</svg>
